HIERARCHY
ROOT Hips
{
	OFFSET 0.00000 0.00000 0.00000
	CHANNELS 6 Xposition Yposition Zposition Yrotation Zrotation Xrotation 
	JOINT Lumbar
	{
		OFFSET 0 0 0
		CHANNELS 3 Zrotation Xrotation Yrotation
		JOINT Neck
		{
			OFFSET 0.00 0.2701 0.00
			CHANNELS 3 Zrotation Xrotation Yrotation
			End Site
			{
				OFFSET 0.00 0.1379 0.00
			}
		}
		JOINT RightShoulder
		{
			OFFSET 0.0119 0.2289 0.1181
			CHANNELS 3 Zrotation Xrotation Yrotation
			JOINT RightElbow
			{
				OFFSET 0.00 -0.1475 0.00
				CHANNELS 2 Zrotation Yrotation
				JOINT RightWrist
				{
					OFFSET 0.00 -0.1605 0.00
					CHANNELS 2 Zrotation Xrotation
					End Site
					{
						OFFSET 0.0040 -0.1068 0.0006
					}
				}
			}
		}
		JOINT LeftShoulder
		{
			OFFSET 0.0119 0.2289 -0.1181
			CHANNELS 3 Zrotation Xrotation Yrotation
			JOINT LeftElbow
			{
				OFFSET 0.00 -0.1475 0.00
				CHANNELS 2 Zrotation Yrotation
				JOINT LeftWrist
				{
					OFFSET 0.00 -0.1605 0.00
					CHANNELS 2 Zrotation Xrotation
					End Site
					{
						OFFSET 0.0040 -0.1068 -0.0006
					}
				}
			}
		}
	}
	JOINT RightHip
	{
		OFFSET 0.0316 -0.0424 0.0458
		CHANNELS 3 Zrotation Xrotation Yrotation
		JOINT RightKnee
		{
			OFFSET 0.00 -0.2438 0.00
			CHANNELS 1 Zrotation
			JOINT RightAnkle
			{
				OFFSET 0.00 -0.2449 0.00
				CHANNELS 3 Zrotation Xrotation Yrotation
				End Site
				{
					OFFSET 0.1237 -0.0542 0.0051
				}
			}
		}
	}
	JOINT LeftHip
	{
		OFFSET 0.0316 -0.0424 -0.0458
		CHANNELS 3 Zrotation Xrotation Yrotation
		JOINT LeftKnee
		{
			OFFSET 0.00 -0.2438 0.00
			CHANNELS 1 Zrotation
			JOINT LeftAnkle
			{
				OFFSET 0.00 -0.2449 0.00
				CHANNELS 3 Zrotation Xrotation Yrotation
				End Site
				{
					OFFSET 0.1237 -0.0542 -0.0051
				}
			}
		}
	}
}
MOTION
Frames: 16
Frame Time: 0.02
-0 -6e-05 -7e-05 29.92318 -19.93143 -3.28289 45.9787 -0.96872 -8.01741 -9.18418 3.00222 -0.96249 -20.50122 -1.85832 -19.21353 26.63425 146.64729 22.85589 9.94767 -22.15155 3.9648 8.15924 30.28345 -149.98954 30.50434 -8.97448 31.73386 -0.15606 -0.68164 -20.01201 -6.62063 -3.58616 -3.98889 35.73555 2.9319 7.25239 -24.14385 -6.73497 1.26749 2.8887
0.00037 -1e-05 -0.00015 29.88859 -19.91463 -3.27282 46.00758 -0.98625 -7.97136 -9.23566 2.99022 -0.96356 -20.65364 -2.21277 -17.78649 26.87298 141.54671 21.44257 9.11332 -22.18421 4.1824 7.48576 30.43564 -145.311 28.91704 -8.26384 31.67124 -0.27271 -1.39847 -20.00522 -6.58592 -3.52318 -3.95346 35.68396 2.91534 7.13344 -24.14183 -6.73489 1.2885 2.89638
0.00073 4e-05 -0.00022 29.85411 -19.89777 -3.26281 46.03638 -1.00377 -7.92541 -9.28726 2.97827 -0.96464 -20.80571 -2.56555 -16.36588 27.1112 136.47068 20.03609 8.28303 -22.21693 4.39933 6.81449 30.58748 -140.64699 27.33474 -7.55538 31.60863 -0.38907 -2.11372 -19.99844 -6.5513 -3.46032 -3.91812 35.63237 2.89886 7.01488 -24.13983 -6.73481 1.30945 2.90405
0.0011 8e-05 -0.00029 29.81963 -19.88102 -3.25278 46.06516 -1.02126 -7.87949 -9.33859 2.96631 -0.96571 -20.95767 -2.91879 -14.94367 27.34924 131.38762 18.62762 7.45155 -22.24951 4.61627 6.14311 30.73923 -135.98288 25.75233 -6.84693 31.54618 -0.50538 -2.82846 -19.99167 -6.5167 -3.39752 -3.8828 35.58092 2.88236 6.89631 -24.13782 -6.73473 1.33039 2.91171
0.00146 0.00013 -0.00037 29.78505 -19.86433 -3.24269 46.09405 -1.03876 -7.83347 -9.38983 2.95429 -0.96679 -21.10994 -3.27399 -13.51402 27.58769 126.27569 17.21113 6.61526 -22.28196 4.83388 5.46946 30.89125 -131.30423 24.16493 -6.13629 31.48376 -0.62194 -3.54449 -19.98489 -6.48203 -3.33462 -3.84742 35.5295 2.86575 6.77733 -24.13581 -6.73465 1.3514 2.9194
0.00183 0.00018 -0.00044 29.75074 -19.84711 -3.23282 46.12266 -1.05631 -7.78769 -9.44225 2.94248 -0.96787 -21.26159 -3.62168 -12.11232 27.82541 121.27472 15.82558 5.7975 -22.31525 5.04937 4.80325 31.04269 -126.67128 22.59344 -5.43245 31.42074 -0.73788 -4.25801 -19.97812 -6.44752 -3.27188 -3.81216 35.47752 2.84956 6.65965 -24.13383 -6.73455 1.37223 2.92701
0.00219 0.00023 -0.00052 29.71594 -19.83106 -3.22254 46.15175 -1.07373 -7.74148 -9.49191 2.93028 -0.96893 -21.41427 -3.98389 -10.65672 28.06438 116.05918 14.38011 4.94393 -22.3468 5.26889 4.12281 31.19522 -121.95165 20.99166 -4.71575 31.35909 -0.85496 -4.97593 -19.97132 -6.41272 -3.20887 -3.77668 35.42685 2.83257 6.53955 -24.13178 -6.73451 1.39339 2.93476
0.00255 0.00028 -0.00059 29.68158 -19.81376 -3.21262 46.18051 -1.0913 -7.69565 -9.54472 2.9184 -0.97001 -21.5661 -4.33313 -9.2494 28.3021 111.03568 12.98843 4.12233 -22.37999 5.4847 3.45549 31.34658 -117.31164 19.41782 -4.01084 31.29598 -0.97096 -5.68956 -19.96457 -6.37819 -3.14613 -3.74142 35.37474 2.81628 6.42156 -24.1298 -6.7344 1.41426 2.94239
0.00292 0.00033 -0.00067 29.64781 -19.79557 -3.20319 46.2084 -1.10893 -7.65035 -9.59903 2.90704 -0.97111 -21.71658 -4.66489 -7.90653 28.5388 106.26954 11.66818 3.34393 -22.41511 5.696 2.80398 31.49724 -112.76828 17.87747 -3.32032 31.23184 -1.0858 -6.39927 -19.95779 -6.34395 -3.08359 -3.70637 35.3217 2.80097 6.30655 -24.12788 -6.73424 1.4347 2.94985
0.00328 0.00037 -0.00074 29.61079 -19.78444 -3.1911 46.2399 -1.12585 -7.60217 -9.63766 2.8931 -0.97212 -21.87392 -5.09233 -6.20916 28.78295 100.09064 9.95402 2.32938 -22.43887 5.93336 2.0608 31.65413 -107.66668 16.1424 -2.54693 31.17589 -1.20779 -7.13554 -19.95092 -6.30793 -3.0195 -3.66993 35.27652 2.78042 6.17559 -24.12553 -6.73448 1.45742 2.95822
0.00366 0.00042 -0.00082 29.58053 -19.75721 -3.1845 46.26467 -1.14449 -7.55996 -9.71386 2.88434 -0.97331 -22.01734 -5.32106 -5.24918 29.01034 96.84839 9.05986 1.80504 -22.48674 6.11566 1.51151 31.79644 -103.74456 14.81956 -1.94849 31.10121 -1.31439 -7.81311 -19.94438 -6.27572 -2.95895 -3.63655 35.21319 2.77064 6.07756 -24.12414 -6.7338 1.47545 2.96472
0.00406 0.00048 -0.00091 29.5699 -19.69612 -3.19438 46.2629 -1.16612 -7.5352 -9.8556 2.89218 -0.97495 -22.11722 -4.97316 -6.41937 29.20027 102.10461 10.52815 2.70509 -22.6004 6.14625 1.4953 31.91157 -103.07537 14.62623 -1.83393 30.98753 -1.38101 -8.35026 -19.9377 -6.25362 -2.90602 -3.61051 35.11359 2.79327 6.07781 -24.125 -6.73122 1.47935 2.96555
0.00447 0.00054 -0.00102 29.56591 -19.61759 -3.20959 46.25542 -1.18971 -7.51633 -10.04065 2.9049 -0.97682 -22.20386 -4.43153 -8.31013 29.37212 110.22608 12.79797 4.08259 -22.73834 6.12177 1.67351 32.01056 -103.58712 14.84652 -1.89441 30.85353 -1.43179 -8.82464 -19.93152 -6.2354 -2.85705 -3.58774 34.99408 2.82635 6.11039 -24.1269 -6.72764 1.47868 2.96458
0.00489 0.0006 -0.00114 29.55812 -19.5395 -3.22133 46.25643 -1.21369 -7.49393 -10.2322 2.91366 -0.97857 -22.30038 -3.99901 -9.80161 29.54628 116.75165 14.62906 5.19007 -22.86542 6.12276 1.76217 32.10746 -103.54824 14.87938 -1.87228 30.71973 -1.48836 -9.31431 -19.92582 -6.21562 -2.80766 -3.56416 34.87383 2.8526 6.12206 -24.12854 -6.72407 1.48106 2.96486
0.00527 0.00066 -0.00121 29.55341 -19.49037 -3.2372 46.23444 -1.2327 -7.47475 -10.31905 2.92923 -0.98023 -22.38162 -3.47716 -11.59813 29.74402 124.53163 16.78059 6.52295 -22.99182 6.12131 1.85659 32.24053 -103.57216 14.91327 -1.86321 30.62075 -1.5508 -9.85984 -19.91722 -6.19497 -2.75244 -3.53776 34.79151 2.88701 6.15701 -24.12924 -6.72223 1.47971 2.96349
0.00574 0.00072 -0.00137 29.54413 -19.38004 -3.24612 46.25659 -1.26196 -7.45073 -10.62707 2.93244 -0.9823 -22.49024 -3.09548 -12.92957 29.89 130.36746 18.44914 7.49886 -23.12535 6.11247 1.98469 32.29893 -103.74327 15.03993 -1.86868 30.44853 -1.59729 -10.27402 -19.91468 -6.17709 -2.7103 -3.518 34.6297 2.90772 6.15495 -24.13223 -6.71672 1.48455 2.96489
